<svg xmlns="http://www.w3.org/2000/svg" width="760" height="132" viewBox="0 0 760 132">
<defs><linearGradient id="wall" x1="0" y1="0" x2="1" y2="1"><stop offset="0" stop-color="#1B1F4B"/><stop offset="0.55" stop-color="#3A2A7A"/><stop offset="1" stop-color="#0E5BA8"/></linearGradient></defs>
<rect width="760" height="132" rx="14" fill="url(#wall)"/>
<rect x="16" y="18" width="728" height="42" rx="10" fill="#F6F6F8" fill-opacity="0.92"/>
<text x="36" y="44" font-family="-apple-system, 'SF Pro Text', 'Helvetica Neue', Arial, sans-serif" font-size="13" font-weight="600" fill="#1C1C1E" text-anchor="start">Light</text>
<rect x="102" y="25" width="196" height="28" rx="7" fill="#1C1C1E" fill-opacity="0.07"/>
<rect x="113" y="34" width="12" height="11" rx="2.5" fill="none" stroke="#1C1C1E" stroke-width="1.6"/><rect x="116.5" y="37.5" width="5" height="4" rx="1" fill="#1C1C1E"/><rect x="115" y="32" width="1.6" height="2" fill="#1C1C1E"/><rect x="115" y="45" width="1.6" height="2" fill="#1C1C1E"/><rect x="119" y="32" width="1.6" height="2" fill="#1C1C1E"/><rect x="119" y="45" width="1.6" height="2" fill="#1C1C1E"/><rect x="123" y="32" width="1.6" height="2" fill="#1C1C1E"/><rect x="123" y="45" width="1.6" height="2" fill="#1C1C1E"/>
<text x="133" y="45" font-family="-apple-system, 'SF Pro Text', 'Helvetica Neue', Arial, sans-serif" font-size="13" font-weight="500" fill="#1C1C1E" text-anchor="start">12%</text>
<rect x="174" y="35" width="16" height="8" rx="1.5" fill="none" stroke="#1C1C1E" stroke-width="1.6"/><rect x="176.0" y="43" width="1.6" height="3" fill="#1C1C1E"/><rect x="179.6" y="43" width="1.6" height="3" fill="#1C1C1E"/><rect x="183.2" y="43" width="1.6" height="3" fill="#1C1C1E"/><rect x="186.8" y="43" width="1.6" height="3" fill="#1C1C1E"/>
<text x="195" y="45" font-family="-apple-system, 'SF Pro Text', 'Helvetica Neue', Arial, sans-serif" font-size="13" font-weight="500" fill="#1C1C1E" text-anchor="start">48%</text>
<rect x="236" y="34" width="17" height="11" rx="3" fill="none" stroke="#1C1C1E" stroke-width="1.6"/><line x1="236" y1="40" x2="253" y2="40" stroke="#1C1C1E" stroke-width="1.4"/><circle cx="249.5" cy="42.7" r="1" fill="#1C1C1E"/>
<text x="257" y="45" font-family="-apple-system, 'SF Pro Text', 'Helvetica Neue', Arial, sans-serif" font-size="13" font-weight="500" fill="#1C1C1E" text-anchor="start">63%</text>
<rect x="314" y="25" width="196" height="28" rx="7" fill="#1C1C1E" fill-opacity="0.07"/>
<rect x="325" y="34" width="12" height="11" rx="2.5" fill="none" stroke="#1C1C1E" stroke-width="1.6"/><rect x="328.5" y="37.5" width="5" height="4" rx="1" fill="#1C1C1E"/><rect x="327" y="32" width="1.6" height="2" fill="#1C1C1E"/><rect x="327" y="45" width="1.6" height="2" fill="#1C1C1E"/><rect x="331" y="32" width="1.6" height="2" fill="#1C1C1E"/><rect x="331" y="45" width="1.6" height="2" fill="#1C1C1E"/><rect x="335" y="32" width="1.6" height="2" fill="#1C1C1E"/><rect x="335" y="45" width="1.6" height="2" fill="#1C1C1E"/>
<text x="345" y="45" font-family="-apple-system, 'SF Pro Text', 'Helvetica Neue', Arial, sans-serif" font-size="13" font-weight="500" fill="#1C1C1E" text-anchor="start">35%</text>
<rect x="386" y="35" width="16" height="8" rx="1.5" fill="none" stroke="#FFD60A" stroke-width="1.6"/><rect x="388.0" y="43" width="1.6" height="3" fill="#FFD60A"/><rect x="391.6" y="43" width="1.6" height="3" fill="#FFD60A"/><rect x="395.2" y="43" width="1.6" height="3" fill="#FFD60A"/><rect x="398.8" y="43" width="1.6" height="3" fill="#FFD60A"/>
<text x="407" y="45" font-family="-apple-system, 'SF Pro Text', 'Helvetica Neue', Arial, sans-serif" font-size="13" font-weight="500" fill="#FFD60A" text-anchor="start">81%</text>
<rect x="448" y="34" width="17" height="11" rx="3" fill="none" stroke="#1C1C1E" stroke-width="1.6"/><line x1="448" y1="40" x2="465" y2="40" stroke="#1C1C1E" stroke-width="1.4"/><circle cx="461.5" cy="42.7" r="1" fill="#1C1C1E"/>
<text x="469" y="45" font-family="-apple-system, 'SF Pro Text', 'Helvetica Neue', Arial, sans-serif" font-size="13" font-weight="500" fill="#1C1C1E" text-anchor="start">70%</text>
<rect x="526" y="25" width="196" height="28" rx="7" fill="#1C1C1E" fill-opacity="0.07"/>
<rect x="537" y="34" width="12" height="11" rx="2.5" fill="none" stroke="#FF453A" stroke-width="1.6"/><rect x="540.5" y="37.5" width="5" height="4" rx="1" fill="#FF453A"/><rect x="539" y="32" width="1.6" height="2" fill="#FF453A"/><rect x="539" y="45" width="1.6" height="2" fill="#FF453A"/><rect x="543" y="32" width="1.6" height="2" fill="#FF453A"/><rect x="543" y="45" width="1.6" height="2" fill="#FF453A"/><rect x="547" y="32" width="1.6" height="2" fill="#FF453A"/><rect x="547" y="45" width="1.6" height="2" fill="#FF453A"/>
<text x="557" y="45" font-family="-apple-system, 'SF Pro Text', 'Helvetica Neue', Arial, sans-serif" font-size="13" font-weight="500" fill="#FF453A" text-anchor="start">97%</text>
<rect x="598" y="35" width="16" height="8" rx="1.5" fill="none" stroke="#FF453A" stroke-width="1.6"/><rect x="600.0" y="43" width="1.6" height="3" fill="#FF453A"/><rect x="603.6" y="43" width="1.6" height="3" fill="#FF453A"/><rect x="607.2" y="43" width="1.6" height="3" fill="#FF453A"/><rect x="610.8" y="43" width="1.6" height="3" fill="#FF453A"/>
<text x="619" y="45" font-family="-apple-system, 'SF Pro Text', 'Helvetica Neue', Arial, sans-serif" font-size="13" font-weight="500" fill="#FF453A" text-anchor="start">92%</text>
<rect x="660" y="34" width="17" height="11" rx="3" fill="none" stroke="#FF453A" stroke-width="1.6"/><line x1="660" y1="40" x2="677" y2="40" stroke="#FF453A" stroke-width="1.4"/><circle cx="673.5" cy="42.7" r="1" fill="#FF453A"/>
<text x="681" y="45" font-family="-apple-system, 'SF Pro Text', 'Helvetica Neue', Arial, sans-serif" font-size="13" font-weight="500" fill="#FF453A" text-anchor="start">91%</text>
<rect x="16" y="72" width="728" height="42" rx="10" fill="#1C1C1E" fill-opacity="0.92"/>
<text x="36" y="98" font-family="-apple-system, 'SF Pro Text', 'Helvetica Neue', Arial, sans-serif" font-size="13" font-weight="600" fill="#F2F2F7" text-anchor="start">Dark</text>
<rect x="102" y="79" width="196" height="28" rx="7" fill="#F2F2F7" fill-opacity="0.07"/>
<rect x="113" y="88" width="12" height="11" rx="2.5" fill="none" stroke="#F2F2F7" stroke-width="1.6"/><rect x="116.5" y="91.5" width="5" height="4" rx="1" fill="#F2F2F7"/><rect x="115" y="86" width="1.6" height="2" fill="#F2F2F7"/><rect x="115" y="99" width="1.6" height="2" fill="#F2F2F7"/><rect x="119" y="86" width="1.6" height="2" fill="#F2F2F7"/><rect x="119" y="99" width="1.6" height="2" fill="#F2F2F7"/><rect x="123" y="86" width="1.6" height="2" fill="#F2F2F7"/><rect x="123" y="99" width="1.6" height="2" fill="#F2F2F7"/>
<text x="133" y="99" font-family="-apple-system, 'SF Pro Text', 'Helvetica Neue', Arial, sans-serif" font-size="13" font-weight="500" fill="#F2F2F7" text-anchor="start">12%</text>
<rect x="174" y="89" width="16" height="8" rx="1.5" fill="none" stroke="#F2F2F7" stroke-width="1.6"/><rect x="176.0" y="97" width="1.6" height="3" fill="#F2F2F7"/><rect x="179.6" y="97" width="1.6" height="3" fill="#F2F2F7"/><rect x="183.2" y="97" width="1.6" height="3" fill="#F2F2F7"/><rect x="186.8" y="97" width="1.6" height="3" fill="#F2F2F7"/>
<text x="195" y="99" font-family="-apple-system, 'SF Pro Text', 'Helvetica Neue', Arial, sans-serif" font-size="13" font-weight="500" fill="#F2F2F7" text-anchor="start">48%</text>
<rect x="236" y="88" width="17" height="11" rx="3" fill="none" stroke="#F2F2F7" stroke-width="1.6"/><line x1="236" y1="94" x2="253" y2="94" stroke="#F2F2F7" stroke-width="1.4"/><circle cx="249.5" cy="96.7" r="1" fill="#F2F2F7"/>
<text x="257" y="99" font-family="-apple-system, 'SF Pro Text', 'Helvetica Neue', Arial, sans-serif" font-size="13" font-weight="500" fill="#F2F2F7" text-anchor="start">63%</text>
<rect x="314" y="79" width="196" height="28" rx="7" fill="#F2F2F7" fill-opacity="0.07"/>
<rect x="325" y="88" width="12" height="11" rx="2.5" fill="none" stroke="#F2F2F7" stroke-width="1.6"/><rect x="328.5" y="91.5" width="5" height="4" rx="1" fill="#F2F2F7"/><rect x="327" y="86" width="1.6" height="2" fill="#F2F2F7"/><rect x="327" y="99" width="1.6" height="2" fill="#F2F2F7"/><rect x="331" y="86" width="1.6" height="2" fill="#F2F2F7"/><rect x="331" y="99" width="1.6" height="2" fill="#F2F2F7"/><rect x="335" y="86" width="1.6" height="2" fill="#F2F2F7"/><rect x="335" y="99" width="1.6" height="2" fill="#F2F2F7"/>
<text x="345" y="99" font-family="-apple-system, 'SF Pro Text', 'Helvetica Neue', Arial, sans-serif" font-size="13" font-weight="500" fill="#F2F2F7" text-anchor="start">35%</text>
<rect x="386" y="89" width="16" height="8" rx="1.5" fill="none" stroke="#FFD60A" stroke-width="1.6"/><rect x="388.0" y="97" width="1.6" height="3" fill="#FFD60A"/><rect x="391.6" y="97" width="1.6" height="3" fill="#FFD60A"/><rect x="395.2" y="97" width="1.6" height="3" fill="#FFD60A"/><rect x="398.8" y="97" width="1.6" height="3" fill="#FFD60A"/>
<text x="407" y="99" font-family="-apple-system, 'SF Pro Text', 'Helvetica Neue', Arial, sans-serif" font-size="13" font-weight="500" fill="#FFD60A" text-anchor="start">81%</text>
<rect x="448" y="88" width="17" height="11" rx="3" fill="none" stroke="#F2F2F7" stroke-width="1.6"/><line x1="448" y1="94" x2="465" y2="94" stroke="#F2F2F7" stroke-width="1.4"/><circle cx="461.5" cy="96.7" r="1" fill="#F2F2F7"/>
<text x="469" y="99" font-family="-apple-system, 'SF Pro Text', 'Helvetica Neue', Arial, sans-serif" font-size="13" font-weight="500" fill="#F2F2F7" text-anchor="start">70%</text>
<rect x="526" y="79" width="196" height="28" rx="7" fill="#F2F2F7" fill-opacity="0.07"/>
<rect x="537" y="88" width="12" height="11" rx="2.5" fill="none" stroke="#FF453A" stroke-width="1.6"/><rect x="540.5" y="91.5" width="5" height="4" rx="1" fill="#FF453A"/><rect x="539" y="86" width="1.6" height="2" fill="#FF453A"/><rect x="539" y="99" width="1.6" height="2" fill="#FF453A"/><rect x="543" y="86" width="1.6" height="2" fill="#FF453A"/><rect x="543" y="99" width="1.6" height="2" fill="#FF453A"/><rect x="547" y="86" width="1.6" height="2" fill="#FF453A"/><rect x="547" y="99" width="1.6" height="2" fill="#FF453A"/>
<text x="557" y="99" font-family="-apple-system, 'SF Pro Text', 'Helvetica Neue', Arial, sans-serif" font-size="13" font-weight="500" fill="#FF453A" text-anchor="start">97%</text>
<rect x="598" y="89" width="16" height="8" rx="1.5" fill="none" stroke="#FF453A" stroke-width="1.6"/><rect x="600.0" y="97" width="1.6" height="3" fill="#FF453A"/><rect x="603.6" y="97" width="1.6" height="3" fill="#FF453A"/><rect x="607.2" y="97" width="1.6" height="3" fill="#FF453A"/><rect x="610.8" y="97" width="1.6" height="3" fill="#FF453A"/>
<text x="619" y="99" font-family="-apple-system, 'SF Pro Text', 'Helvetica Neue', Arial, sans-serif" font-size="13" font-weight="500" fill="#FF453A" text-anchor="start">92%</text>
<rect x="660" y="88" width="17" height="11" rx="3" fill="none" stroke="#FF453A" stroke-width="1.6"/><line x1="660" y1="94" x2="677" y2="94" stroke="#FF453A" stroke-width="1.4"/><circle cx="673.5" cy="96.7" r="1" fill="#FF453A"/>
<text x="681" y="99" font-family="-apple-system, 'SF Pro Text', 'Helvetica Neue', Arial, sans-serif" font-size="13" font-weight="500" fill="#FF453A" text-anchor="start">91%</text>
</svg>
